<svg xmlns="http://www.w3.org/2000/svg" width="430" height="430" fill="none" viewBox="0 0 430 430"><mask id="K5n8w9_GnAa" width="354" height="317" x="40" y="70" maskUnits="userSpaceOnUse" style="mask-type:alpha"><path fill="#fff" d="M393.526 70.752H40.083v315.43h245.879C264.51 374.221 250 351.305 250 325c0-38.66 31.34-70 70-70s70 31.34 70 70c0 10.136-2.155 19.77-6.031 28.467h9.557z"/></mask><g mask="url(#K5n8w9_GnAa)"><path fill="#fff" stroke="#121331" stroke-linecap="round" stroke-linejoin="round" stroke-miterlimit="12.88" stroke-width="12" d="M376 370H54V87.4h322z"/></g><path stroke="#121331" stroke-linecap="round" stroke-linejoin="round" stroke-miterlimit="12.88" stroke-width="12" d="M129.9 87.4H86.2V48.8h43.7zm213.9 0h-43.7V48.8h43.7z"/><circle cx="215" cy="290" r="25" stroke="#121331" stroke-width="12"/><path stroke="#121331" stroke-linecap="round" stroke-linejoin="round" stroke-miterlimit="12.88" stroke-width="12" d="M376 135H54"/><circle cx="320" cy="325" r="70" stroke="#a39cf4" stroke-width="12"/><path stroke="#a39cf4" stroke-linecap="round" stroke-linejoin="round" stroke-width="12" d="M320 295v60m30-30h-60"/><circle cx="125" cy="290" r="25" stroke="#a39cf4" stroke-width="12"/><circle cx="125" cy="200" r="25" stroke="#121331" stroke-width="12"/><circle cx="215" cy="200" r="25" stroke="#a39cf4" stroke-width="12"/><circle cx="305" cy="200" r="25" stroke="#121331" stroke-width="12"/></svg>