<svg xmlns="http://www.w3.org/2000/svg" width="430" height="430" fill="none" viewBox="0 0 430 430"><path fill="#e4e4e4" d="M135 195c30.376 0 55-24.624 55-55s-24.624-55-55-55-55 24.624-55 55 24.624 55 55 55"/><path fill="#e93453" d="M20 308.282C20 262.287 57.287 225 103.282 225h63.436C212.713 225 250 262.287 250 308.282V322a3 3 0 0 1-3 3H23a3 3 0 0 1-3-3z"/><g opacity=".5" style="mix-blend-mode:multiply"><path fill="#e4e4e4" d="M135 195c30.376 0 55-24.624 55-55s-24.624-55-55-55-55 24.624-55 55 24.624 55 55 55"/><path fill="#e93453" d="M20 308.282C20 262.287 57.287 225 103.282 225h63.436C212.713 225 250 262.287 250 308.282V322a3 3 0 0 1-3 3H23a3 3 0 0 1-3-3z"/></g><path fill="#e4e4e4" d="M290 195c30.376 0 55-24.624 55-55s-24.624-55-55-55-55 24.624-55 55 24.624 55 55 55"/><path fill="#e93453" d="M175 308.282C175 262.287 212.287 225 258.282 225h63.436C367.713 225 405 262.287 405 308.282V322a3 3 0 0 1-3 3H178a3 3 0 0 1-3-3z"/><g opacity=".5" style="mix-blend-mode:multiply"><path fill="#e4e4e4" d="M290 195c30.376 0 55-24.624 55-55s-24.624-55-55-55-55 24.624-55 55 24.624 55 55 55"/><path fill="#e93453" d="M175 308.282C175 262.287 212.287 225 258.282 225h63.436C367.713 225 405 262.287 405 308.282V322a3 3 0 0 1-3 3H178a3 3 0 0 1-3-3z"/></g><path fill="#e4e4e4" d="M215 190c38.66 0 70-31.34 70-70s-31.34-70-70-70-70 31.34-70 70 31.34 70 70 70"/><path fill="#e4e4e4" fill-rule="evenodd" d="M253.005 178.794A70.4 70.4 0 0 1 240 180c-38.66 0-70-31.34-70-70 0-24.649 12.74-46.322 31.995-58.794C169.549 57.302 145 85.784 145 120c0 38.66 31.34 70 70 70 14.011 0 27.061-4.116 38.005-11.206" clip-rule="evenodd" opacity=".3" style="mix-blend-mode:multiply"/><path fill="#e93453" d="M75 324.23c0-54.803 44.427-99.23 99.23-99.23h76.54c54.803 0 99.23 44.427 99.23 99.23V347a3 3 0 0 1-3 3H78a3 3 0 0 1-3-3z"/><path fill="#e93453" d="M174.23 225C119.427 225 75 269.427 75 324.23V347a3 3 0 0 0 3 3h47v-25.77c0-54.803 44.427-99.23 99.23-99.23z" opacity=".3" style="mix-blend-mode:multiply"/></svg>