<svg xmlns="http://www.w3.org/2000/svg" width="430" height="430" fill="none" viewBox="0 0 430 430"><mask id="Iza6-0RuYBa" width="405" height="278" x="10" y="67" maskUnits="userSpaceOnUse" style="mask-type:alpha"><path fill="#D9D9D9" d="M285 120c0 38.66-31.34 70-70 70s-70-31.34-70-70c0-20.73 9.011-39.355 23.329-52.172H10V345h65v-20.77c0-54.803 44.427-99.23 99.23-99.23h76.54c54.803 0 99.23 44.427 99.23 99.23V345h65V67.828H261.67C275.989 80.645 285 99.27 285 120"/></mask><g stroke="#a39cf4" stroke-linejoin="round" stroke-width="12" mask="url(#Iza6-0RuYBa)"><path stroke-linecap="round" stroke-miterlimit="10" d="M135 195c30.376 0 55-24.624 55-55s-24.624-55-55-55-55 24.624-55 55 24.624 55 55 55"/><path d="M20 308.282C20 262.287 57.287 225 103.282 225h63.436C212.713 225 250 262.287 250 308.282V325H20z"/><path stroke-linecap="round" stroke-miterlimit="10" d="M290 195c30.376 0 55-24.624 55-55s-24.624-55-55-55-55 24.624-55 55 24.624 55 55 55"/><path d="M175 308.282C175 262.287 212.287 225 258.282 225h63.436C367.713 225 405 262.287 405 308.282V325H175z"/></g><path stroke="#121331" stroke-linecap="round" stroke-linejoin="round" stroke-miterlimit="10" stroke-width="12" d="M215 190c38.66 0 70-31.34 70-70s-31.34-70-70-70-70 31.34-70 70 31.34 70 70 70"/><path stroke="#121331" stroke-linejoin="round" stroke-width="12" d="M75 324.23c0-54.803 44.427-99.23 99.23-99.23h76.54c54.803 0 99.23 44.427 99.23 99.23V350H75z"/></svg>