<svg id="visual" viewBox="0 0 900 600" width="900" height="600" xmlns="http://www.w3.org/2000/svg" xmlns:xlink="http://www.w3.org/1999/xlink" version="1.1"><rect x="0" y="0" width="900" height="600" fill="#001220"></rect><defs><linearGradient id="grad1_0" x1="33.3%" y1="100%" x2="100%" y2="0%"><stop offset="20%" stop-color="#001220" stop-opacity="1"></stop><stop offset="80%" stop-color="#001220" stop-opacity="1"></stop></linearGradient></defs><defs><linearGradient id="grad2_0" x1="0%" y1="100%" x2="66.7%" y2="0%"><stop offset="20%" stop-color="#001220" stop-opacity="1"></stop><stop offset="80%" stop-color="#001220" stop-opacity="1"></stop></linearGradient></defs><g transform="translate(900, 600)"><path d="M-405.6 0C-390.7 -68 -375.7 -136.1 -343.8 -198.5C-311.9 -260.9 -262.9 -317.7 -202.8 -351.3C-142.7 -384.9 -71.3 -395.2 0 -405.6L0 0Z" fill="#A0006D"></path></g><g transform="translate(0, 0)"><path d="M405.6 0C364.4 52.8 323.1 105.7 294.4 170C265.8 234.3 249.8 310.1 202.8 351.3C155.8 392.5 77.9 399 0 405.6L0 0Z" fill="#A0006D"></path></g></svg>