<svg id="visual" viewBox="0 0 900 600" width="900" height="600" xmlns="http://www.w3.org/2000/svg" xmlns:xlink="http://www.w3.org/1999/xlink" version="1.1"><g transform="translate(932.9171181410973 -58.28376388354758)"><path d="M241.6 -349.8C330.7 -318.7 432.8 -281.5 467.4 -211.7C502.1 -141.9 469.3 -39.6 454.6 65.6C439.9 170.8 443.3 278.9 396.4 356.6C349.5 434.2 252.4 481.5 152.3 504.3C52.2 527.1 -50.8 525.5 -123.9 478.3C-197 431.1 -240.2 338.3 -313.6 265.3C-386.9 192.2 -490.4 138.8 -529.7 58.3C-569.1 -22.1 -544.2 -129.7 -480.5 -198.7C-416.7 -267.8 -314.1 -298.4 -227.5 -330.7C-140.9 -363 -70.5 -397 2.9 -401.5C76.2 -406 152.5 -380.9 241.6 -349.8" fill="#E93453"></path></g></svg>