<svg id="visual" viewBox="0 0 900 600" width="900" height="600" xmlns="http://www.w3.org/2000/svg" xmlns:xlink="http://www.w3.org/1999/xlink" version="1.1"><g transform="translate(938.333625118552 -40.985414858401384)"><path d="M317.1 -446.2C413.2 -431.6 494.9 -347.5 502.2 -252.5C509.5 -157.6 442.3 -51.8 388.7 28.9C335.1 109.6 295.1 165.3 253.4 227.2C211.7 289 168.2 357 95.9 421.8C23.6 486.5 -77.7 547.9 -155.1 526.1C-232.6 504.4 -286.4 399.6 -367.9 314C-449.4 228.5 -558.8 162.3 -576.7 79.1C-594.6 -4.1 -521.1 -104.2 -440.8 -168.6C-360.5 -233 -273.5 -261.6 -198.9 -286.1C-124.3 -310.5 -62.2 -330.7 24.1 -368.3C110.5 -405.9 220.9 -460.8 317.1 -446.2" fill="#E93453"></path></g></svg>