<svg id="visual" viewBox="0 0 900 600" width="900" height="600" xmlns="http://www.w3.org/2000/svg" xmlns:xlink="http://www.w3.org/1999/xlink" version="1.1"><g transform="translate(896.5968444553762 -58.293265911791735)"><path d="M345.9 -448.8C441.8 -406.4 508.6 -296.7 513 -188.9C517.3 -81.2 459.3 24.6 429.5 146.8C399.7 268.9 398.2 407.5 331.4 488C264.5 568.4 132.3 590.7 1.4 588.8C-129.5 586.9 -259 560.8 -335.4 483.5C-411.8 406.2 -435.1 277.6 -462.6 158.4C-490.1 39.3 -521.8 -70.2 -498.1 -167.6C-474.4 -265 -395.3 -350.1 -303.1 -393.6C-210.8 -437.2 -105.4 -439.1 9.8 -452.6C125 -466.1 250 -491.1 345.9 -448.8" fill="#E93453"></path></g></svg>