<svg id="visual" viewBox="0 0 900 600" width="900" height="600" xmlns="http://www.w3.org/2000/svg" xmlns:xlink="http://www.w3.org/1999/xlink" version="1.1"><g transform="translate(895.2174902366693 -5.441761019011608)"><path d="M183.8 -327.3C246 -246.1 309.5 -208.2 355.6 -149.9C401.7 -91.5 430.5 -12.8 443.7 80.9C456.8 174.6 454.4 283.1 409.5 380C364.7 477 277.4 562.3 186.2 551.3C94.9 540.2 -0.3 432.7 -98.5 382.4C-196.7 332.1 -297.9 338.9 -361.5 296.2C-425.1 253.4 -451.1 161 -437.6 79.1C-424.2 -2.7 -371.3 -74.1 -327.1 -140.5C-282.9 -206.9 -247.4 -268.3 -194.3 -353.7C-141.3 -439.2 -70.6 -548.6 -4.9 -541C60.8 -533.3 121.6 -408.6 183.8 -327.3" fill="#E93453"></path></g></svg>