<svg id="visual" viewBox="0 0 900 600" width="900" height="600" xmlns="http://www.w3.org/2000/svg" xmlns:xlink="http://www.w3.org/1999/xlink" version="1.1"><g transform="translate(891.6338794338717 4.803879887708831)"><path d="M306.5 -485.1C398.3 -418 474.3 -334.7 498 -240C521.6 -145.3 492.9 -39.3 486.2 76.3C479.5 191.8 494.8 316.9 448.7 412.3C402.6 507.7 295.1 573.4 189.2 570.8C83.3 568.3 -21 497.7 -114.8 445.3C-208.5 392.9 -291.7 358.9 -364.7 301.2C-437.6 243.5 -500.4 162.3 -489.1 84.8C-477.8 7.2 -392.4 -66.5 -331.1 -130.6C-269.7 -194.7 -232.5 -249.2 -181.3 -334.8C-130.1 -420.5 -65.1 -537.2 21.2 -570.2C107.4 -603.1 214.8 -552.3 306.5 -485.1" fill="#E93453"></path></g></svg>