<svg id="visual" viewBox="0 0 900 600" width="900" height="600" xmlns="http://www.w3.org/2000/svg" xmlns:xlink="http://www.w3.org/1999/xlink" version="1.1"><g transform="translate(862.822234326813 11.804961765920751)"><path d="M328.6 -480.6C428.6 -447 514.5 -360.6 499.3 -265.7C484 -170.7 367.7 -67.3 300.4 6.8C233.1 80.9 214.8 125.6 203.9 225.1C193 324.6 189.5 478.9 144.8 491C100.2 503.1 14.4 373 -54.3 300.2C-123.1 227.4 -174.9 211.9 -241.4 182.7C-307.9 153.5 -389 110.6 -415.7 48.4C-442.3 -13.8 -414.5 -95.2 -396.9 -201.1C-379.4 -307 -372.2 -437.4 -307.7 -487.3C-243.3 -537.2 -121.6 -506.6 -3.7 -500.9C114.3 -495.1 228.5 -514.2 328.6 -480.6" fill="#E93453"></path></g></svg>